<svg width="19" height="19" viewBox="0 0 19 19" fill="none" xmlns="http://www.w3.org/2000/svg">
<path d="M8.1 13.7L15.15 6.65L13.75 5.25L8.1 10.9L5.25 8.05L3.85 9.45L8.1 13.7ZM2.5 18.5C1.95 18.5 1.479 18.304 1.087 17.912C0.695002 17.52 0.499335 17.0493 0.500002 16.5V2.5C0.500002 1.95 0.696002 1.479 1.088 1.087C1.48 0.695002 1.95067 0.499335 2.5 0.500002H16.5C17.05 0.500002 17.521 0.696002 17.913 1.088C18.305 1.48 18.5007 1.95067 18.5 2.5V16.5C18.5 17.05 18.304 17.521 17.912 17.913C17.52 18.305 17.0493 18.5007 16.5 18.5H2.5Z" fill="#AF8965"/>
</svg>
